<svg
  viewBox="0 0 16 16"
  xmlns="http://www.w3.org/2000/svg"
  xmlns:xlink="http://www.w3.org/1999/xlink"
  aria-hidden="true"
  focusable="false"
>
  <g>
    <path
      d="m8 3v7.9a4.01179 4.01179 0 0 0 4-4 6.7509 6.7509 0 0 0 -.2-1.4l.1.1a6.89429 6.89429 0 0 1 2.4 2.4 8.39088 8.39088 0 0 1 -2.3 2.3 6.89412 6.89412 0 0 1 -3.9 1.2c-.03345 0-.06653-.00677-.1-.0072v1.5072a8.90686 8.90686 0 0 0 8-5 8.90686 8.90686 0 0 0 -8-5z"
      opacity=".33"
    ></path>
    <path
      d="m8 0a1 1 0 0 0 -1 1v2.07135a8.91637 8.91637 0 0 0 -7 4.92865 8.91637 8.91637 0 0 0 7 4.92865v2.07135a1 1 0 0 0 2 0v-14a1 1 0 0 0 -1-1zm-1.5 4.9a1.55426 1.55426 0 0 1 .5.087v2.81451a1.40746 1.40746 0 0 1 -.5.09849 1.538 1.538 0 0 1 -1.5-1.5 1.53794 1.53794 0 0 1 1.5-1.5zm-2.3 5.4a6.97279 6.97279 0 0 1 -2.5-2.3 6.89429 6.89429 0 0 1 2.4-2.4c.1 0 .1-.1.2-.1a3.194 3.194 0 0 0 -.3 1.4 4.0047 4.0047 0 0 0 3 3.857v.65289a6.37491 6.37491 0 0 1 -2.8-1.10989z"
    ></path>
  </g>
</svg>
