<svg
  viewBox="0 0 16 16"
  xmlns="http://www.w3.org/2000/svg"
  xmlns:xlink="http://www.w3.org/1999/xlink"
  aria-hidden="true"
  focusable="false"
>
  <path
    d="m8 2.99051a8.81883 8.81883 0 0 0 -8 4.95062 8.74664 8.74664 0 0 0 8 5.06836 8.63266 8.63266 0 0 0 8-5.06836 8.83631 8.83631 0 0 0 -8-4.95062zm-1.31445 1.86981a1.47663 1.47663 0 1 1 -1.47663 1.47668 1.47665 1.47665 0 0 1 1.47663-1.47668zm1.31445 6.64917a7.17486 7.17486 0 0 1 -6.30475-3.55237 7.4952 7.4952 0 0 1 2.81475-2.6336 3.83956 3.83956 0 1 0 6.98126.00244 7.522 7.522 0 0 1 2.81774 2.63916 7.09785 7.09785 0 0 1 -6.309 3.54437z"
  ></path>
</svg>
