<svg
  viewBox="0 0 16 16"
  xmlns="http://www.w3.org/2000/svg"
  xmlns:xlink="http://www.w3.org/1999/xlink"
  aria-hidden="true"
  focusable="false"
>
  <path
    d="m1.70671 12.879 11.17218-11.17219 1.4142 1.4142-11.17218 11.17218zm.99329-1.679 1.1-1.1a5.06317 5.06317 0 0 1 -2-2.1 7.48268 7.48268 0 0 1 6.2-3.5 4.86877 4.86877 0 0 1 1.2.1l1.3-1.3a10.07431 10.07431 0 0 0 -2.5-.3 8.84129 8.84129 0 0 0 -8 5 8.42455 8.42455 0 0 0 2.7 3.2zm10.7-6.4-1.1 1.1a7.08625 7.08625 0 0 1 2 2.1 7.50323 7.50323 0 0 1 -6.2 3.5 8.31665 8.31665 0 0 1 -1.3-.2l-1.3 1.3a8.909 8.909 0 0 0 6.4-.5 9.04344 9.04344 0 0 0 4.1-4.1 9.168 9.168 0 0 0 -2.6-3.2z"
  ></path>
</svg>
